<?xml version="1.0" encoding="utf-8"?>
<svg version="1.1" xmlns:xlink="http://www.w3.org/1999/xlink" width="14px" height="20px" xmlns="http://www.w3.org/2000/svg">
  <g transform="matrix(1 0 0 1 -26 -50 )">
    <path d="M 13.4319691791821 0.998352941176472  C 13.4319691791821 0.873454471482793  13.3701805428464 0.753679179831659  13.2602143790851 0.665411764705883  L 12.8461803921569 0.332705882352942  C 12.7363364977782 0.244340215044661  12.5872828015012 0.194688632274929  12.4318535947713 0.194688632274929  C 12.2764243880414 0.194688632274929  12.1273706917644 0.244340215044665  12.0175267973856 0.332705882352942  L 0.414033986928138 9.65694117647059  C 0.304067823166722 9.74520859159636  0.242279186831044 9.86498388324749  0.242279186831044 9.98988235294117  C 0.242279186831044 10.1147808226349  0.304067823166722 10.234556114286  0.414033986928138 10.3228235294118  L 12.0175267973856 19.6470588235294  C 12.1273706917644 19.7354244908377  12.2764243880414 19.7850760736074  12.4318535947713 19.7850760736074  C 12.5872828015012 19.7850760736074  12.7363364977782 19.7354244908377  12.8461803921569 19.6470588235294  L 13.2602143790851 19.3143529411765  C 13.4888302070237 19.1305883051831  13.4888302070237 18.8327058124639  13.2602143790851 18.6489411764706  L 2.48478954248364 9.99011764705882  L 13.2602143790851 1.33129411764706  C 13.3701805428464 1.24302670252129  13.4319691791821 1.12325141087015  13.4319691791821 0.998352941176472  Z " fill-rule="nonzero" fill="#666666" stroke="none" transform="matrix(1 0 0 1 26 50 )" />
  </g>
</svg>