<?xml version="1.0" encoding="utf-8"?>
<svg version="1.1" xmlns:xlink="http://www.w3.org/1999/xlink" width="1110px" height="873px" xmlns="http://www.w3.org/2000/svg">
  <g transform="matrix(1 0 0 1 -15 -82 )">
    <path d="M 16 95  A 12 12 0 0 1 28 83 L 1112 83  A 12 12 0 0 1 1124 95 L 1124 942  A 12 12 0 0 1 1112 954 L 28 954  A 12 12 0 0 1 16 942 L 16 95  Z " fill-rule="nonzero" fill="#ffffff" stroke="none" />
    <path d="M 15.5 95  A 12.5 12.5 0 0 1 28 82.5 L 1112 82.5  A 12.5 12.5 0 0 1 1124.5 95 L 1124.5 942  A 12.5 12.5 0 0 1 1112 954.5 L 28 954.5  A 12.5 12.5 0 0 1 15.5 942 L 15.5 95  Z " stroke-width="1" stroke-dasharray="9,4" stroke="#797979" fill="none" stroke-opacity="0.290196078431373" stroke-dashoffset="0.5" />
  </g>
</svg>