<?xml version="1.0" encoding="utf-8"?>
<svg version="1.1" xmlns:xlink="http://www.w3.org/1999/xlink" width="851px" height="61px" viewBox="238 1612  851 61" xmlns="http://www.w3.org/2000/svg">
  <path d="M 239 1617  A 4 4 0 0 1 243 1613 L 1084 1613  A 4 4 0 0 1 1088 1617 L 1088 1668  A 4 4 0 0 1 1084 1672 L 243 1672  A 4 4 0 0 1 239 1668 L 239 1617  Z " fill-rule="nonzero" fill="#ffffff" stroke="none" />
  <path d="M 238.5 1617  A 4.5 4.5 0 0 1 243 1612.5 L 1084 1612.5  A 4.5 4.5 0 0 1 1088.5 1617 L 1088.5 1668  A 4.5 4.5 0 0 1 1084 1672.5 L 243 1672.5  A 4.5 4.5 0 0 1 238.5 1668 L 238.5 1617  Z " stroke-width="1" stroke="#797979" fill="none" stroke-opacity="0.290196078431373" />
</svg>