<?xml version="1.0" encoding="utf-8"?>
<svg version="1.1" xmlns:xlink="http://www.w3.org/1999/xlink" width="1041px" height="61px" viewBox="60 349  1041 61" xmlns="http://www.w3.org/2000/svg">
  <path d="M 61 354  A 4 4 0 0 1 65 350 L 1096 350  A 4 4 0 0 1 1100 354 L 1100 405  A 4 4 0 0 1 1096 409 L 65 409  A 4 4 0 0 1 61 405 L 61 354  Z " fill-rule="nonzero" fill="#f0f0f0" stroke="none" />
  <path d="M 60.5 354  A 4.5 4.5 0 0 1 65 349.5 L 1096 349.5  A 4.5 4.5 0 0 1 1100.5 354 L 1100.5 405  A 4.5 4.5 0 0 1 1096 409.5 L 65 409.5  A 4.5 4.5 0 0 1 60.5 405 L 60.5 354  Z " stroke-width="1" stroke="#797979" fill="none" stroke-opacity="0.290196078431373" />
</svg>