<?xml version="1.0" encoding="utf-8"?>
<svg version="1.1" xmlns:xlink="http://www.w3.org/1999/xlink" width="15px" height="15px" xmlns="http://www.w3.org/2000/svg">
  <g transform="matrix(1 0 0 1 -618 -177 )">
    <path d="M 625.5 180  C 628.02 180  630 181.98  630 184.5  C 630 187.02  628.02 189  625.5 189  C 622.98 189  621 187.02  621 184.5  C 621 181.98  622.98 180  625.5 180  Z " fill-rule="nonzero" fill="#ffffff" stroke="none" />
    <path d="M 625.5 179  C 628.58 179  631 181.42  631 184.5  C 631 187.58  628.58 190  625.5 190  C 622.42 190  620 187.58  620 184.5  C 620 181.42  622.42 179  625.5 179  Z " stroke-width="4" stroke="#33ccb0" fill="none" />
  </g>
</svg>