<?xml version="1.0" encoding="utf-8"?>
<svg version="1.1" xmlns:xlink="http://www.w3.org/1999/xlink" width="10px" height="10px" xmlns="http://www.w3.org/2000/svg">
  <g transform="matrix(1 0 0 1 -621 -328 )">
    <path d="M 626 328  C 628.8 328  631 330.2  631 333  C 631 335.8  628.8 338  626 338  C 623.2 338  621 335.8  621 333  C 621 330.2  623.2 328  626 328  Z " fill-rule="nonzero" fill="#ffffff" stroke="none" />
    <path d="M 626 328.5  C 628.52 328.5  630.5 330.48  630.5 333  C 630.5 335.52  628.52 337.5  626 337.5  C 623.48 337.5  621.5 335.52  621.5 333  C 621.5 330.48  623.48 328.5  626 328.5  Z " stroke-width="1" stroke="#cccccc" fill="none" />
  </g>
</svg>