<?xml version="1.0" encoding="utf-8"?>
<svg version="1.1" xmlns:xlink="http://www.w3.org/1999/xlink" width="45px" height="53px" xmlns="http://www.w3.org/2000/svg">
  <defs>
    <mask fill="white" id="clip31">
      <path d="M 0.485902298400849 18.8049748646901  L 15.7125607526801 14.8327305101757  L 18.9109440695266 0.113080624985779  L 44.7153780325396 17.4085203479966  L 43.7678126179523 48.3254915288186  L 6.01152272333402 52.942251821968  L 0.485902298400849 18.8049748646901  Z " fill-rule="evenodd" />
    </mask>
  </defs>
  <g transform="matrix(1 0 0 1 382 -940 )">
    <path d="M 0.485902298400849 18.8049748646901  L 15.7125607526801 14.8327305101757  L 18.9109440695266 0.113080624985779  L 44.7153780325396 17.4085203479966  L 43.7678126179523 48.3254915288186  L 6.01152272333402 52.942251821968  L 0.485902298400849 18.8049748646901  Z " fill-rule="nonzero" fill="#cccecc" stroke="none" fill-opacity="0.698039215686274" transform="matrix(1 0 0 1 -382 940 )" />
    <path d="M 0.485902298400849 18.8049748646901  L 15.7125607526801 14.8327305101757  L 18.9109440695266 0.113080624985779  L 44.7153780325396 17.4085203479966  L 43.7678126179523 48.3254915288186  L 6.01152272333402 52.942251821968  L 0.485902298400849 18.8049748646901  Z " stroke-width="4" stroke-dasharray="6,2" stroke="#ec3030" fill="none" transform="matrix(1 0 0 1 -382 940 )" mask="url(#clip31)" />
  </g>
</svg>