<?xml version="1.0" encoding="utf-8"?>
<svg version="1.1" xmlns:xlink="http://www.w3.org/1999/xlink" width="360px" height="45px" xmlns="http://www.w3.org/2000/svg">
  <defs>
    <filter x="8px" y="80px" width="360px" height="45px" filterUnits="userSpaceOnUse" id="filter25">
      <feOffset dx="0" dy="0" in="SourceAlpha" result="shadowOffsetInner" />
      <feGaussianBlur stdDeviation="2.5" in="shadowOffsetInner" result="shadowGaussian" />
      <feComposite in2="shadowGaussian" operator="atop" in="SourceAlpha" result="shadowComposite" />
      <feColorMatrix type="matrix" values="0 0 0 0 0  0 0 0 0 0  0 0 0 0 0  0 0 0 0.0980392156862745 0  " in="shadowComposite" />
    </filter>
    <g id="widget26">
      <path d="M 14 95  A 9 9 0 0 1 23 86 L 353 86  A 9 9 0 0 1 362 95 L 362 110  A 9 9 0 0 1 353 119 L 23 119  A 9 9 0 0 1 14 110 L 14 95  Z " fill-rule="nonzero" fill="#ffffff" stroke="none" fill-opacity="0.952941176470588" />
      <path d="M 13.5 95  A 9.5 9.5 0 0 1 23 85.5 L 353 85.5  A 9.5 9.5 0 0 1 362.5 95 L 362.5 110  A 9.5 9.5 0 0 1 353 119.5 L 23 119.5  A 9.5 9.5 0 0 1 13.5 110 L 13.5 95  Z " stroke-width="1" stroke="#d5d5d5" fill="none" stroke-opacity="0.729411764705882" />
    </g>
  </defs>
  <g transform="matrix(1 0 0 1 -8 -80 )">
    <use xlink:href="#widget26" filter="url(#filter25)" />
    <use xlink:href="#widget26" />
  </g>
</svg>