<?xml version="1.0" encoding="utf-8"?>
<svg version="1.1" xmlns:xlink="http://www.w3.org/1999/xlink" width="11px" height="11px" xmlns="http://www.w3.org/2000/svg">
  <defs>
    <mask fill="white" id="clip27">
      <path d="M 10.9882895670688 0.41796875  C 11.0065057960729 0.524739583333332  10.9895907262834 0.627604166666666  10.9375443577005 0.7265625  L 5.94109297374024 10.7265625  C 5.85261414714928 10.9088541666667  5.70428199668796 11  5.49609652235628 11  C 5.47007333806482 11  5.43103856162763 10.9947916666667  5.37899219304471 10.984375  C 5.26449018216229 10.9583333333333  5.17210787792761 10.8997395833333  5.10184528034067 10.80859375  C 5.03158268275373 10.7174479166667  4.99645138396026 10.6145833333333  4.99645138396026 10.5  L 4.99645138396026 6  L 0.499645138396026 6  C 0.385143127513603 6  0.282351549562337 5.96484375  0.191270404542229 5.89453125  C 0.10018925952212 5.82421875  0.0416370948663355 5.73177083333333  0.0156139105748758 5.6171875  C -0.0104092737165839 5.50260416666667  0 5.39322916666667  0.0468417317246274 5.2890625  C 0.0936834634492548 5.18489583333333  0.169150697894488 5.10677083333333  0.273243435060327 5.0546875  L 10.2661462029808 0.0546875000000003  C 10.3338064821386 0.018229166666666  10.4092737165839 0  10.4925479063165 0  C 10.6330731014904 0  10.750177430802 0.0494791666666656  10.8438608942512 0.148437500000001  C 10.9219304471256 0.221354166666666  10.9700733380648 0.311197916666666  10.9882895670688 0.41796875  Z " fill-rule="evenodd" />
    </mask>
  </defs>
  <g transform="matrix(1 0 0 1 128 -326 )">
    <path d="M 10.9882895670688 0.41796875  C 11.0065057960729 0.524739583333332  10.9895907262834 0.627604166666666  10.9375443577005 0.7265625  L 5.94109297374024 10.7265625  C 5.85261414714928 10.9088541666667  5.70428199668796 11  5.49609652235628 11  C 5.47007333806482 11  5.43103856162763 10.9947916666667  5.37899219304471 10.984375  C 5.26449018216229 10.9583333333333  5.17210787792761 10.8997395833333  5.10184528034067 10.80859375  C 5.03158268275373 10.7174479166667  4.99645138396026 10.6145833333333  4.99645138396026 10.5  L 4.99645138396026 6  L 0.499645138396026 6  C 0.385143127513603 6  0.282351549562337 5.96484375  0.191270404542229 5.89453125  C 0.10018925952212 5.82421875  0.0416370948663355 5.73177083333333  0.0156139105748758 5.6171875  C -0.0104092737165839 5.50260416666667  0 5.39322916666667  0.0468417317246274 5.2890625  C 0.0936834634492548 5.18489583333333  0.169150697894488 5.10677083333333  0.273243435060327 5.0546875  L 10.2661462029808 0.0546875000000003  C 10.3338064821386 0.018229166666666  10.4092737165839 0  10.4925479063165 0  C 10.6330731014904 0  10.750177430802 0.0494791666666656  10.8438608942512 0.148437500000001  C 10.9219304471256 0.221354166666666  10.9700733380648 0.311197916666666  10.9882895670688 0.41796875  Z " fill-rule="nonzero" fill="#000000" stroke="none" fill-opacity="0" transform="matrix(1 0 0 1 -128 326 )" />
    <path d="M 10.9882895670688 0.41796875  C 11.0065057960729 0.524739583333332  10.9895907262834 0.627604166666666  10.9375443577005 0.7265625  L 5.94109297374024 10.7265625  C 5.85261414714928 10.9088541666667  5.70428199668796 11  5.49609652235628 11  C 5.47007333806482 11  5.43103856162763 10.9947916666667  5.37899219304471 10.984375  C 5.26449018216229 10.9583333333333  5.17210787792761 10.8997395833333  5.10184528034067 10.80859375  C 5.03158268275373 10.7174479166667  4.99645138396026 10.6145833333333  4.99645138396026 10.5  L 4.99645138396026 6  L 0.499645138396026 6  C 0.385143127513603 6  0.282351549562337 5.96484375  0.191270404542229 5.89453125  C 0.10018925952212 5.82421875  0.0416370948663355 5.73177083333333  0.0156139105748758 5.6171875  C -0.0104092737165839 5.50260416666667  0 5.39322916666667  0.0468417317246274 5.2890625  C 0.0936834634492548 5.18489583333333  0.169150697894488 5.10677083333333  0.273243435060327 5.0546875  L 10.2661462029808 0.0546875000000003  C 10.3338064821386 0.018229166666666  10.4092737165839 0  10.4925479063165 0  C 10.6330731014904 0  10.750177430802 0.0494791666666656  10.8438608942512 0.148437500000001  C 10.9219304471256 0.221354166666666  10.9700733380648 0.311197916666666  10.9882895670688 0.41796875  Z " stroke-width="2" stroke="#91929a" fill="none" transform="matrix(1 0 0 1 -128 326 )" mask="url(#clip27)" />
  </g>
</svg>