<?xml version="1.0" encoding="utf-8"?>
<svg version="1.1" xmlns:xlink="http://www.w3.org/1999/xlink" width="98px" height="74px" xmlns="http://www.w3.org/2000/svg">
  <g transform="matrix(1 0 0 1 -246 -101 )">
    <path d="M 95.5366847826087 32.7252888318357  C 97.1788949275362 33.8335472828412  98 35.2584510055627  98 37  C 98 38.7098844672657  97.1788949275362 40.150620453573  95.5366847826087 41.3222079589217  L 52.195652173913 72.2426187419769  C 50.4646739130435 73.4142062473256  48.4451992753623 74  46.1372282608696 74  C 43.8736413043478 74  41.8763586956522 73.4142062473256  40.1453804347826 72.2426187419769  L 35.1521739130435 68.6803594351733  C 33.4655797101449 67.477107402653  32.6222826086957 66.0363714163457  32.6222826086957 64.3581514762516  C 32.6222826086957 62.6799315361575  33.4655797101449 61.2391955498502  35.1521739130435 60.0359435173299  L 54.6589673913044 46  L 7.78940217391304 46  C 5.48143115942029 46.1193838254172  3.60620471014493 45.5256739409499  2.16372282608696 44.3382541720154  C 0.721240942028985 43.1508344030809  0 41.7180145485665  0 40.0397946084724  L 0 33.9602053915276  C 0 32.2819854514335  0.721240942028985 30.8491655969191  2.16372282608696 29.6617458279846  C 3.60620471014493 28.4743260590501  5.48143115942029 27.8806161745828  7.78940217391304 28  L 54.6589673913044 28  L 35.1521739130435 13.9165596919127  C 33.4655797101449 12.7766367137356  32.6222826086957 11.3517329910141  32.6222826086957 9.6418485237484  C 32.6222826086957 7.93196405648267  33.4655797101449 6.50706033376123  35.1521739130435 5.36713735558408  L 40.1453804347826 1.80487804878049  C 41.8319746376812 0.601626016260158  43.8292572463768 0  46.1372282608696 0  C 48.4895833333333 0  50.5090579710145 0.601626016260158  52.195652173913 1.80487804878049  L 95.5366847826087 32.7252888318357  Z " fill-rule="nonzero" fill="#000000" stroke="none" transform="matrix(1 0 0 1 246 101 )" />
  </g>
</svg>