<?xml version="1.0" encoding="utf-8"?>
<svg version="1.1" xmlns:xlink="http://www.w3.org/1999/xlink" width="816px" height="61px" viewBox="479 2847  816 61" xmlns="http://www.w3.org/2000/svg">
  <path d="M 480 2852  A 4 4 0 0 1 484 2848 L 1290 2848  A 4 4 0 0 1 1294 2852 L 1294 2903  A 4 4 0 0 1 1290 2907 L 484 2907  A 4 4 0 0 1 480 2903 L 480 2852  Z " fill-rule="nonzero" fill="#f0f0f0" stroke="none" />
  <path d="M 479.5 2852  A 4.5 4.5 0 0 1 484 2847.5 L 1290 2847.5  A 4.5 4.5 0 0 1 1294.5 2852 L 1294.5 2903  A 4.5 4.5 0 0 1 1290 2907.5 L 484 2907.5  A 4.5 4.5 0 0 1 479.5 2903 L 479.5 2852  Z " stroke-width="1" stroke="#797979" fill="none" stroke-opacity="0.36078431372549" />
</svg>