<?xml version="1.0" encoding="utf-8"?>
<svg version="1.1" xmlns:xlink="http://www.w3.org/1999/xlink" width="104px" height="104px" xmlns="http://www.w3.org/2000/svg">
  <g transform="matrix(1 0 0 1 -442 -1223 )">
    <path d="M 443 1227  A 3 3 0 0 1 446 1224 L 542 1224  A 3 3 0 0 1 545 1227 L 545 1323  A 3 3 0 0 1 542 1326 L 446 1326  A 3 3 0 0 1 443 1323 L 443 1227  Z " fill-rule="nonzero" fill="#000000" stroke="none" fill-opacity="0.0196078431372549" />
    <path d="M 442.5 1227  A 3.5 3.5 0 0 1 446 1223.5 L 542 1223.5  A 3.5 3.5 0 0 1 545.5 1227 L 545.5 1323  A 3.5 3.5 0 0 1 542 1326.5 L 446 1326.5  A 3.5 3.5 0 0 1 442.5 1323 L 442.5 1227  Z " stroke-width="1" stroke-dasharray="9,4" stroke="#d9d9d9" fill="none" stroke-dashoffset="0.5" />
  </g>
</svg>